<?xml version="1.0" encoding="UTF-8" standalone="no"?><!DOCTYPE svg PUBLIC "-//W3C//DTD SVG 1.1//EN" "http://www.w3.org/Graphics/SVG/1.1/DTD/svg11.dtd"><svg width="100%" height="100%" viewBox="0 0 456 126" version="1.1" xmlns="http://www.w3.org/2000/svg" xmlns:xlink="http://www.w3.org/1999/xlink" xml:space="preserve" xmlns:serif="http://www.serif.com/" style="fill-rule:evenodd;clip-rule:evenodd;stroke-linejoin:round;stroke-miterlimit:2;"><g><path d="M34.61,98.297l0.29,0.003c0.7,-0.3 1.6,-0 2.1,0.7c0.5,0.8 0.3,1 -0.7,0.4c-0.8,-0.5 -1.1,-0.4 -0.6,0.1c0.5,0.5 1.4,0.9 2,1c2.6,0.1 7.7,2.6 7.1,3.5c-0.3,0.5 0.3,0.6 1.2,0.2c1.1,-0.4 1.5,-0.2 1.1,0.4c-0.4,0.6 -0.1,1.1 0.6,1c3.4,-0.1 4.8,0.4 4.1,1.5c-0.4,0.6 -0.3,0.9 0.2,0.6c0.5,-0.3 5.2,-0.3 10.6,0.1c5.3,0.3 9.4,0.3 9.2,-0.1c-0.6,-1 5.4,-2.1 6.7,-1.2c0.7,0.4 0.9,0.3 0.6,-0.3c-0.8,-1.3 2,-2.6 3.5,-1.6c0.7,0.4 0.8,0.1 0.3,-0.7c-0.6,-1 -0.4,-1.2 0.9,-0.7c1.1,0.5 1.5,0.3 1,-0.5c-0.5,-0.8 -0.2,-0.9 0.9,-0.5c0.9,0.3 1.9,0.1 2.3,-0.5c0.5,-0.7 0.2,-0.8 -0.6,-0.3c-0.9,0.6 -1.1,0.4 -0.6,-0.4c0.5,-0.7 1.4,-1 2.2,-0.7c0.7,0.3 1.6,-0 2,-0.6c0.5,-0.7 0.2,-0.8 -0.7,-0.3c-1.2,0.8 -1.2,0.6 -0,-0.8c1.6,-2 3.6,-2.3 2.5,-0.5c-0.4,0.7 0.2,0.5 1.4,-0.6c1.2,-1 1.9,-2.2 1.7,-2.6c-0.2,-0.4 0.4,-1.5 1.5,-2.5c1.1,-1 2,-1.5 2,-1c-0,0.4 0.7,0.2 1.5,-0.5c0.8,-0.7 1.2,-1.6 0.9,-2.1c-0.3,-0.5 0.1,-1.8 0.9,-3c1,-1.4 1.7,-1.7 2.2,-0.9c0.8,1.4 5.9,-8.9 9.1,-18.5l2.3,-7l0.1,7.4c-0,7.1 -3.3,24.6 -5.1,26.5c-0.4,0.5 -0.6,-0.2 -0.3,-1.5c0.4,-2.1 0.3,-2.2 -0.4,-0.4c-0.5,1.1 -0.7,2.6 -0.4,3.4c0.3,0.9 0.1,1.2 -0.6,0.7c-0.7,-0.4 -1.2,-0.5 -1.2,-0.2c-0,0.3 0.4,0.7 0.9,1.1c1.5,0.9 5.1,-3.5 8.2,-10c2.2,-4.6 2.9,-5.4 2.9,-3.4c-0,5 -3.1,12.8 -7.5,18.8c-4.8,6.5 -15.2,15.4 -17.2,14.6c-0.7,-0.2 -1.2,0.1 -1,0.8c0.1,0.7 -0.8,1.2 -2,1.1c-1.2,-0 -2,0.3 -1.8,0.7c0.7,1 -2.5,2 -3.7,1.2c-0.6,-0.3 -0.8,-0.1 -0.4,0.5c0.4,0.6 -1.5,1.8 -4.6,2.9c-10,3.4 -42.5,1.9 -40.2,-1.9c0.4,-0.6 0.3,-0.8 -0.4,-0.5c-1.2,0.8 -4.4,-0.2 -3.7,-1.2c0.2,-0.4 -0.6,-0.7 -1.8,-0.7c-1.3,0.1 -2.1,-0.4 -1.9,-1.2c0.1,-0.8 -0.2,-1.1 -0.8,-0.7c-1,0.6 -9.3,-4.6 -10.6,-6.7c-0.4,-0.6 0.9,0.1 2.9,1.6c5.1,3.9 4.7,2.7 -0.5,-1.4c-2.3,-1.9 -3.8,-2.8 -3.4,-2.2c0.4,0.7 0.3,1.2 -0.2,1.2c-1.3,0 -9.3,-9.6 -13,-15.5c-1.7,-2.8 -4.3,-8.6 -5.8,-13c-2.4,-6.9 -2.8,-9.5 -2.8,-19.5c-0,-9.9 0.4,-12.6 2.7,-19.3c3.3,-9.5 8.2,-17.4 15,-24.5c4.6,-4.6 7.9,-6.9 6.2,-4.2c-1,1.6 0.1,1.1 1.6,-0.7c1.2,-1.5 1.2,-1.6 -0.1,-0.8c-1.3,0.8 -1.3,0.7 -0.1,-0.9c0.8,-0.9 2,-1.5 2.8,-1.2c0.9,0.4 1.1,0.1 0.7,-0.6c-0.5,-0.8 -0.2,-0.9 0.9,-0.5c1,0.4 1.6,0.2 1.4,-0.6c-0.1,-0.7 0.8,-1.2 2,-1.1c1.2,0 2.1,-0.4 2,-0.9c-0.4,-1.9 16.2,-6.5 23.8,-6.6c2.2,0 8,0.8 12.8,1.9c12,2.6 20,6.4 27.4,13c6.7,6 14,14.7 13,15.6c-0.3,0.4 -0,1.9 0.9,3.5c0.8,1.6 1.2,2.9 0.9,2.9c-0.2,0 -1.4,-1.9 -2.6,-4.2c-4.4,-8.6 -18.3,-19.8 -30.3,-24.3c-5.8,-2.2 -7,-2.3 -18.1,-1.5c-6.6,0.4 -14,1.5 -16.4,2.4c-2.4,0.9 -4.8,1.3 -5.4,0.9c-0.5,-0.3 -0.7,-0.1 -0.3,0.5c0.3,0.6 -0.3,1.3 -1.4,1.7c-2.4,0.8 -2.6,2.1 -0.4,2.9c0.8,0.3 1.2,0.2 0.9,-0.4c-0.9,-1.4 2.8,-1.2 4.5,0.2c1.2,1.1 1.2,1 0.1,-0.4c-1,-1.4 -0.9,-1.7 0.8,-2.3c4.4,-1.4 7,-1.7 15.1,-1.9c9.3,-0.3 12.7,0.2 9.4,1.5c-1.4,0.6 -1,0.8 1.7,0.8c8.2,0.2 26.6,12.7 31.2,21.2l1.8,3.4l-2.2,-3c-4.7,-6.2 -13.3,-13.6 -19.3,-16.5c-23.2,-11 -48.3,-2.5 -59.5,20.3c-6.1,12.3 -7.5,22 -4.6,33.1c2.2,8.4 6,15.8 11.2,21.8l4.51,5.197Z" style="fill:#f46724;"/><text x="144.802px" y="47.927px" style="font-family:'DancingScript-Bold', 'Dancing Script';font-size:48px;fill:#f46724;">E<tspan x="166.738px " y="47.927px ">a</tspan>t to beat</text><text x="142.93px" y="88.597px" style="font-family:'DancingScript-Regular', 'Dancing Script';font-size:30px;">D<tspan x="162.37px " y="88.597px ">i</tspan>et<tspan x="189.52px " y="88.597px ">-</tspan>driven life management</text></g></svg>